<?xml version="1.0" encoding="UTF-8"?>
<svg version="1.1" viewBox="0 0 1280 853" width="1280" height="853" xmlns="http://www.w3.org/2000/svg">
<path transform="translate(707,75)" d="m0 0 8 2 8 4 13 10 13 11 12 11 12 12 11 14 13 16 10 16 5 11 3 9 10-1h30l22 2 17 4 13 5 15 7 5-3 11-10 11-9 13-10 11-7 19-12 16-10 15-8 25-10 17-5 5-1h11l5 3 4 7 2 10 1 15v20l-2 31-5 36-7 29-5 16-7 17-8 15-10 14-13 15-1 1 1 16 2 15 3 10 5-3 9-10 4-5 5-13 6-9 9-8 9-4h13l8 4 2 2 13 1 9 5 6 8 3 8 2 12 2 6v14l-4 12-7 11-9 8-10 6-8 9-7 10-8 10-12 14-9 10-6 7-8 7-10 10-8 7-16 13-15 11-16 10-17 10 1 7 8 29 8 32 4 25 2 9 6-1 4-2 2-4 4-6 6-16 9-32 7-19 8-16 10-16 9-11 7-8 11-9 13-9 23-12 14-5 16-4 8-1h26l11 2 8 4 3 3 1 5-3 5-6 7-7 14-3 14v62l-3 27-3 15-7 20-7 14-10 14-9 10-11 9-11 8-19 10-19 6-19 4h-34l-23-5-3-1-1 9-4 3-31 7-31 5-28 3-35 1-39-1-28-2-28-3-29-5-29-6-9-3-7 1-5-5-1-6v-15l2-27 5-35 8-43 8-32v-3l-5-3-3-5-2-16-6-2-24-13-20-13-14-10-13-11-12-11-2-2-4 1-8 10-19 19-11 9-12 10-15 11-19 12-9 6-4 9-4 3h-2l7 23 8 36 4 24 3 21 2 24v28l-3 6-12 2-22 5-38 7-28 3-20 1h-55l-39-3-24-3-24-5-11-3-12-2-3-5v-2l-15 5-18 3h-15l-22-3-15-4-15-6-14-7-14-10-13-12-7-8-9-14-8-16-4-13-3-15-1-12v-57l-3-16-5-10-5-6 1-7 5-4 10-4 17-3h32l21 5 20 8 11 7 10 8 12 12 13 17 9 16 8 17 9 25 6 18 7 12 3 1 4-20 7-25 8-26 9-21v-3l-21-11-18-12-16-12-13-11-8-8-8-7-15-16-9-10-7-9-10-13-12-17-8-11-12-6-8-7-5-8-2-8v-10l3-10 5-8 4-10 6-8 7-4h14l5-2h9l10 4 8 7 6 10 4 12 7 8 9 7 3-17 1-21-17-17-9-14-10-19-8-19-8-26-6-28-3-25-1-12v-28l3-18 4-9 6-5 7-1 15 2 24 8 25 12 14 8 28 17 11 7 10 9 10 8 6 1 20-9 27-7 20-4 21-2 5-18 10-20 13-23 9-15 9-13 9-11 12-12 10-7 9-2 6 3 7 8 10 17 9 19 12 36 7 25 5 33 2 25v27l8 11 19 37 7 9 14 7 12 4 5 4 1 2v8l-5 12-4 6 1 5 6 8 1 8-4 11-3 5 4-1h13l11 4 9 7 1 2h3l-3-9-4-15-2-7-8-11-6-9v-7l6-8 9-8-1-3-9-7-2-3 1-6 3-2 9 1 6 4 5-1 6-9 20-41-1-6-5-18-4-26v-46l3-27 4-23 5-20 6-15 7-14 7-8z" fill="#FDE5B8"/>
<path transform="translate(707,75)" d="m0 0 8 2 8 4 13 10 13 11 12 11 12 12 11 14 13 16 10 16 5 11 3 9 10-1h30l22 2 17 4 13 5 15 7 5-3 11-10 11-9 13-10 11-7 19-12 16-10 15-8 25-10 17-5 5-1h11l5 3 4 7 2 10 1 15v20l-2 31-5 36-7 29-5 16-7 17-8 15-10 14-13 15-1 1 1 16 2 15 3 10 5-3 9-10 4-5 5-13 6-9 9-8 9-4h13l8 4 2 2 13 1 9 5 6 8 3 8 2 12 2 6v14l-4 12-7 11-9 8-10 6-8 9-7 10-8 10-12 14-9 10-6 7-8 7-10 10-8 7-16 13-15 11-16 10-17 10 1 7 8 29 8 32 4 25 2 9 6-1 4-2 2-4 4-6 6-16 9-32 7-19 8-16 10-16 9-11 7-8 11-9 13-9 23-12 14-5 16-4 8-1h26l11 2 8 4 3 3 1 5-3 5-6 7-7 14-3 14v62l-3 27-3 15-7 20-7 14-10 14-9 10-11 9-11 8-19 10-19 6-19 4h-34l-23-5-3-1-1 9-4 3h-7l-1-1-3-35-6-40-4-17-5-25-11-50-4-13v-2l-7 1-2-3 1-5 5-4 19-12 9-7 12-8 9-7 16-13 10-9 8-7 10-9 20-20 9-11 11-14 13-18 9-5 9-8 7-11 2-7v-10l-9 1-6 2h-6l1-8 8-6 7-1-4-8-5-3-9 3-8 6-4-1v-6l5-8v-2l-7-1-11 4-7 7-3 6-2 11-5 5-9 11-12 13-5 5-10 11-8 7-12 12-11 9-10 9-17 13-17 12-22 13-17 7-8 2h-8l-1-5 4-4 16-9 17-9 16-11 13-10 13-11 10-8 14-12 11-10-1-6-6-5v-2l-4-2-13-12-10-7-16-7-14-4-12-3-9-1h-54l-21-6-34-17-5 1-7 10-8 8-8 4h-3l3 5 1 3 4 2 11 7 10 4h12l16-4 9-4h5l1 1v9l-4 14v8l-8 28-8 15-9 11-9 8-10 4h-16l-6-3-10-9-7-9-5-10-5-18-3-13-4-27-10-8-2-2v-9l3-3 6 1 4 7 3 2 9-1 8-4 3-1 2-7-4-2-8-10-4-11-1-6-6 4-10 10-4-1-23-11-9-2h-33l-15 3h-5l-1 5-4 1-1 4-4 4-6 3-5 4 1 6 8 10 8 9 2 8-4 1 2 6 6 11 9 12 12 14 11 11 20 15 10 7 11 6 24 12 3 3-1 5-2 1h-11l-9-3-21-10-15-9-15-12-8-7-13-13-9-12-10-15-4-8-4-15-2-7-8-11-6-9v-7l6-8 9-8-1-3-9-7-2-3 1-6 3-2 9 1 6 4 5-1 6-9 20-41-1-6-5-18-4-26v-46l3-27 4-23 5-20 6-15 7-14 7-8z" fill="#27150B"/>
<path transform="translate(681,340)" d="m0 0h33l11 3 21 10 4 1 8-7 5-5 4-2 2 11 5 10 7 8 2 1-1 5-4 4-8 4-9 1-5-4-2-6h-8v11l8 7 4 3 5 32 5 20 4 11 8 12 8 8 7 4 2 1h16l10-4 10-9 9-12 6-12 8-28v-8l4-14v-9l-8 1-12 5-10 2h-12l-12-5-10-7-7-7v-3l12-6 8-8 7-10 6 1 17 8 11 6 10 4 15 4h54l13 2 19 5 15 6 11 7 14 12 6 5 5 5 3 4-1 5-15 14-11 9-13 11-10 8-16 12-14 9-23 12-8 5h-2l-1 7h8l16-5 16-8 18-11 18-13 16-13 10-9 11-9 7-6 10-10 10-11h2l2-4 8-8 9-11 7-8h2l2-13 5-8 8-7 9-3 7 1 2 2-4 5-2 4v6l4-1 11-7 5-1 5 3 4 6v3l-9 3-5 4-2 8 12-3 9-1 1 1v10l-4 11-8 10-8 7-8 4-10 14-9 12-12 14-7 8-22 22-8 7-10 9-14 11-11 9-15 10-10 8-21 13-2 3 1 5h7l6 19 14 64 4 20 3 17 4 27 3 35 3 2-27 6-31 5-28 3-35 1-39-1-28-2-28-3-29-5-29-6-10-3 2-18 1-23 4-34 9-49 6-27 4-12 3 1 5 12 5 6v2l5 2 9 2-4-7-6-8-4-9-2-10v-16l-6 2-5 9h-9l-1-4v-16l3-15 7-14 1-6-5-2-5 1-3 3-6 12-5 16-2 1-17-10-15-10-14-10-14-11-13-10-8-7v-3l11-6 6-8 3-8v-9l-3-9-1-2v-14l-3-7-2-4 4-2 10 15 11 14 16 16 16 12 11 7 21 11 9 4 5 1h11l2-1-1-5-19-10-14-7-12-8-18-14-10-9-9-9-9-11-11-16-4-7v-5l3-2-3-8-10-11-6-9 1-5 8-6 5-3 3-5 4-2 1-4z" fill="#F79337"/>
<path transform="translate(488,80)" d="m0 0 6 1 8 7 8 13 8 15 8 19 11 34 6 24 4 28 2 25v27l8 11 19 37 7 9 14 7 12 4 5 4 1 2v8l-5 12-4 6 1 5 6 8 1 8-4 11-3 5 4-1h13l11 4 9 7 7 10 1 4v14l3 6 1 5v9l-4 10-7 8-8 4h-2l3 5 28 22 16 12 11 7 18 11 6 3 5-16 7-14 5-3 5 1 3 2v6l-7 14-3 15v20l9-1 4-8 2-2h5l1 16 3 13 5 9 7 9v3l-9-1-5-3-7-10-4-10-2-1-2 9-6 24-8 44-4 26-2 19-1 25-1 11-2 5-6 1-5-5-1-6v-15l2-27 5-35 8-43 8-32v-3l-5-3-3-5-2-16-6-2-24-13-20-13-14-10-13-11-12-11-2-2-4 1-8 10-19 19-11 9-12 10-15 11-19 12-9 6-4 9-4 3h-2l7 23 8 36 4 24 3 21 2 24v28l-3 6-6 1-3-4-2-17-2-29-6-42-9-44-5-16-1-1-5 12-8 9-6 2-2-1 1-5 7-11 4-11 1-5v-12l-2-8-2-2v-4l5 1 8 7v2h7l1-16-2-12-7-14v-7l1-6-2-7-10 2h-12l-5-2 5-6 19-9 16-9 9-7 14-10 23-23 13-18 10-17 5-11 5-1 3-6v-7l-2-4-7-2v-2l-3-1 1-5 8-11 5-12-10-3-11-6-9-7-8-11-12-23-10-16-10-14-11-12-8-8-12-9-14-9-19-8-16-5-16-3-15-1h-20l-26 3-21 4-24 8-10 4-3 6-5-1-15-13-15-10-20-14-20-12-23-12-10-5-21-7-4-1h-8l-3 12-1 16 1 31 2 20 5 27 7 22 8 21 10 19 10 15 7 10v2h2l2-4 5 1 1 18v14l-6 27-1 5 9 9 11 9 5 4 11 9 14 11 11 8 17 12 20 13 31 16 4 2 4 7-1 2-11-1-15-5-13-6-16-8-24-16-18-13-13-10-9-7-14-12-12-11-8-7-7-8-5-4-9-11-4-6-3-12-4-6-6-5-4-1 2 4v8l-2 3h-5l-8-10-5-3-5 1-2 4 8 5 4 5 1 8h-6l-6-4h-5l-3 5v14l4 7 1 3 4 2 12 5 4 5 11 16 12 16 9 11 12 13 7 8 15 14 13 11 10 9 28 20 20 12 13 8 2 2-1 5-2 2h-5l-2 6-7 16-10 32-9 35-6 42-2 18-1 22-11-1-3-5v-2l-15 5-18 3h-15l-22-3-15-4-15-6-14-7-14-10-13-12-7-8-9-14-8-16-4-13-3-15-1-12v-57l-3-16-5-10-5-6 1-7 5-4 10-4 17-3h32l21 5 20 8 11 7 10 8 12 12 13 17 9 16 8 17 9 25 6 18 7 12 3 1 4-20 7-25 8-26 9-21v-3l-21-11-18-12-16-12-13-11-8-8-8-7-15-16-9-10-7-9-10-13-12-17-8-11-12-6-8-7-5-8-2-8v-10l3-10 5-8 4-10 6-8 7-4h14l5-2h9l10 4 8 7 6 10 4 12 7 8 9 7 3-17 1-21-17-17-9-14-10-19-8-19-8-26-6-28-3-25-1-12v-28l3-18 4-9 6-5 7-1 15 2 24 8 25 12 14 8 28 17 11 7 10 9 10 8 6 1 20-9 27-7 20-4 21-2 5-18 10-20 13-23 9-15 9-13 9-11 12-12 10-7z" fill="#27150B"/>
<path transform="translate(707,90)" d="m0 0 5 1 10 9 11 9 29 29 9 11 8 9 20 30 2 6-12 5-5 3-2 5 42-4h30l25 3 15 4 18 6 11 5 5-1 10-9 22-16 16-11 8-5h12l9 4 5 6 2 3v8l-24 24-8 10-7 8-4 6v6l10 7 7 14 8 10 12 14 5 1-1-7-3-7-7-12-5-7 1-5 13-6v-6l-3-2-9 1-8 3h-5l-1-4 8-10 17-17 15-14 8-7 15-11 3-2h4l-1 19-3 23-2 11-2 14-8 32-8 24-6 16h-2l-1 5h-3l-1 7 6 22 2 24 4 14 4 8-16 16-2-4-5-5-2-4-4-2-13-12-10-7-16-7-14-4-12-3-9-1h-54l-21-6-34-17-5 1-7 10-8 8-8 4h-3l3 5 1 3 4 2 11 7 10 4h12l16-4 9-4h5l1 1v9l-4 14v8l-8 28-8 15-9 11-9 8-10 4h-16l-6-3-10-9-7-9-5-10-5-18-3-13-4-27-10-8-2-2v-9l3-3 6 1 4 7 3 2 9-1 8-4 3-1 2-7-4-2-8-10-4-11-1-6-6 4-10 10-4-1-23-11-9-2h-33l-15 3h-5l-1 4-2-7 5-4 8-12 11-23 11-21 10-16 10-13 9-10 15-14 13-10 10-6-2-10-7-21-8-16-6-11-12-17-3-3v-2l-4-2h-5l-1 4 7 14 10 19 9 17 7 17-1 5-4-1-10-8-7-1-1 5 9 10 3 4-13 11-13 13-9 11-6 8-4 6-2-2-5-31v-44l2-24 5-26 6-22 6-15z" fill="#F69336"/>
<path transform="translate(175,166)" d="m0 0h8l17 5 17 7 22 12 14 8 18 12 10 7 16 11 10 9 6 4h3l3-6 21-8 17-5 23-4 20-2h20l15 1 20 4 22 8 16 8 16 12 10 9 10 10 11 15 10 16 12 23 10 14 11 8 7 3-3 1v4l-9-3-4-1h-31l-12 5-14 12-2 2-5-1-12-7h-3l-5 10-9 9-8 4h-12l-8-4-10-9-3-5v-4l-10 5-11 8-19 11-18 7-7 2h-55l-15 3-13 5-11 6-12 9-8 9-7 11-5 9-4-2-10-9-8-7-4-4 4-19 3-13v-14l-1-18-5 1-1 2h-2l-7-11-8-11-12-22-8-20-6-18-5-22-3-19-2-34v-12l1-14 3-12z" fill="#F69336"/>
<path transform="translate(681,340)" d="m0 0h33l11 3 21 10 4 1 8-7 5-5 4-2 2 11 5 10 7 8 2 1-1 5-4 4-8 4-9 1-5-4-2-6h-8v11l8 7 4 3 5 32 5 20 4 11 8 12 8 8 7 4 2 1h16l10-4 10-9 9-12 6-12 8-28v-8l4-14v-9l-8 1-12 5-10 2h-12l-12-5-10-7-7-7v-3l12-6 8-8 7-10 6 1 17 8 11 6 10 4 15 4h54l13 2 19 5 15 6 11 7 14 12 6 5 5 5 3 4-1 5-15 14-11 9-13 11-10 8-16 12-14 9-23 12-10 6-6 3-5 9-2 6 1 4v14l-2 15-7 17-6 12-3 3-4 5-3 3h-2v-3l-11 11-9 10v-3l6-10h2v-4h2l2-7-3 3-1 3-4 4-2 4-3 3h-2v3l-4 2-1 2-2-1 1-2-5 4-7 8-13 10h-9l-7-2-10-6-10-8-7-6-8-11-4-9-2-10v-16l-6 2-5 9h-9l-1-4v-16l3-15 7-14 1-6-5-2-5 1-3 3-6 12-5 16-2 1-17-10-15-10-14-10-14-11-13-10-8-7v-3l11-6 6-8 3-8v-9l-3-9-1-2v-14l-3-7-2-4 4-2 10 15 11 14 16 16 16 12 11 7 21 11 9 4 5 1h11l2-1-1-5-19-10-14-7-12-8-18-14-10-9-9-9-9-11-11-16-4-7v-5l3-2-3-8-10-11-6-9 1-5 8-6 5-3 3-5 4-2 1-4z" fill="#FDE5B8"/>
<path transform="translate(164,375)" d="m0 0 7 2 7 7 4 11 2 6 7 10 6 7 8 7 8 9 8 7 10 9 11 9 26 20 19 13 15 10 14 8 23 10 16 4h5l-2-5-1-2 6 3 2 11v22l1 17 5 12 7 11 4 10-2 5-8 16-12 40-6 25-3 16-6 33-4 30-5 1-35-4-24-5-11-3-1-1v-22l3-27 5-33 10-38 7-23 8-20 4-8 6-2 1-5-10-7-11-6-19-12-16-12-9-7-11-10-11-9-7-7-8-7-14-15-9-11-8-10-13-18-8-12-10-5-7-4-5-7-1-3v-14l4-6 7 1 4 3 6 1-3-9-4-5-7-4 3-5 5-1 6 4 7 9h5l1-2v-8z" fill="#F69336"/>
<path transform="translate(1160,511)" d="m0 0h20l6 2-8 12-5 13-2 14v48l-1 26-3 18-4 15-10 21-12 16-14 14-13 9-15 8-17 6-16 3-7 1h-18l-22-4-12-4-1-4-2-27v-10l13-11 9-14 5-11 5-16 8-27 6-17 12-22 5-7h2l2-4 11-12h2l1-3 14-11 16-9 14-6 13-4z" fill="#F69236"/>
<path transform="translate(114,543)" d="m0 0 21 2 17 5 16 8 6 4 10 9 12 12 12 17 10 19 9 22 8 24 8 15 9 10 3 2v19l-2 21-1 3-15 5-21 3h-16l-20-4-18-6-15-8-11-8-12-11-9-11-8-13-7-15-4-13-2-9-1-14v-57l-4-16-4-8v-4l11-2z" fill="#F69236"/>
<path transform="translate(1160,511)" d="m0 0h20l6 2-8 12-5 13-2 14v48l-1 19-6 8-6 6-3 1h-7l-4-5-4-7-3-9-7 7-14 7-8 1-5-4-4-7-4-11v-7l-9 3h-9l-6-3-3-8v-28l9-11 5-5h2l1-3 14-11 16-9 14-6 13-4z" fill="#FDE6B9"/>
<path transform="translate(789,330)" d="m0 0 12 2 10 5 5 6-1 8-7 10-8 8-8 4h-3l3 5 1 3 4 2 11 7 10 4h12l16-4 9-4h5l1 1v9l-4 14v8l-8 28-8 15-9 11-9 8-10 4h-16l-6-3-10-9-7-9-5-10-5-18-3-13-4-27-10-8-2-2v-9l3-3 6 1 4 7 3 2 9-1 8-4 3-1 2-7-4-2-8-10-3-7v-12l7-6z" fill="#28150B"/>
<path transform="translate(114,543)" d="m0 0 21 2 17 5 16 8 6 4 10 9 12 12 11 16-4 5h-14l-9-1h-1v15l-2 17-3 9-3 2h-14l-12-3-5-3-3-3-1 7-3 10-6 10-10-4-11-7-9-10-3-4-1-8v-57l-4-16-4-8v-4l11-2z" fill="#FDE5B9"/>
<path transform="translate(1068,137)" d="m0 0h8l2 9 1 27-3 37-4 30-7 29-8 24-12 25-10 15-5 8-4-4-3-4-6-1 3-1 1-5h2l1-6 7-18 8-27 6-26 2-17 3-17 2-26 1-2-7 3-12 9-10 8-10 10-7 6-18 18-5 7v3l8-1 9-3 7 1 2 2v6l-14 7 1 6 8 11 5 9 2 7-1 5-5-1-11-12-10-13-8-15-9-6v-6l9-12 9-10 7-8 18-18v-8l-6-8-9-4-11-1 4-4 19-11 23-13 24-10z" fill="#955726"/>
<path transform="translate(470,384)" d="m0 0 4 1 11 9 5 3h5l9-8h6l1 1v5l-2 4h-2l-2 4-4 3-3 1-4 29-5 19-4 8-5 12-4 6-9 10-4 3-7 2h-9l-13-4-11-7-10-11-9-16-7-15-5-17-1-9v-12l3-3 7 1 9 5 8 2h17l15-5 11-7 6-7z" fill="#29160B"/>
<path transform="translate(486,95)" d="m0 0h3l9 14 8 16 6 17 6 19 10 34 5 25 2 24v10l-4-2-7-8-10-8-5-5-18-11 1-6 2-4v-7l-2-2-5 1-4 6-3 2-9-2 1-10 6-23 4-14 7-11 1-8-5-2-5 5-8 16-5 13-6 25-1 8-1 1h-7l-14-3-20-3 1-7 8-17 14-24 13-22 8-11 9-10 7-8z" fill="#A86832"/>
<path transform="translate(599,423)" d="m0 0 2 3v3l8-2 7-4h9l3 2-4 9-1 8 8-3 5-4h2v11l-3 11 2 4h5l-1 7-8 9-16 8-4 5-9 12-17 17-3 1v2l-11 9-13 11-11 8-19 13h-2l-3-19-6-14-5-6h-6l-2 1-1-10-1-4 12-5 14-8 16-11 10-9 8-7 12-13 13-18z" fill="#F49136"/>
<path transform="translate(707,90)" d="m0 0 5 1 10 9 11 9 29 29 9 11-2 1h-9l-10 3-6 4-3 4-10-16-8-10-1-3-4-2h-5l-1 4 7 14 10 19 9 17 7 17-1 5-4-1-10-8-7-1-1 5 9 10 3 4-13 11-13 13-9 11-6 8-4 6-2-2-5-31v-44l2-24 5-26 6-22 6-15z" fill="#955726"/>
<path transform="translate(175,166)" d="m0 0h8l17 5 17 7 22 12 14 8 18 12v3h-2v-2l-2 1-12 2-9 7-4 4-2 6h-2l7 8 11 12 11 15 5 10 1 6-2 4-6 2-4 6h-7l-11-4-12-7-2-3 1-4 2-2h8l17 7h2l-4-7-10-13-7-10-2-4-4-2-15-15-11-9-9-6-1 10v21l4 23 2 12h-4l-2 3-1 1h-3-1l-3-1-2-2h-3l1-4h-2l-2-5h-2l-5-27-2-20-1-32 1-15 3-12z" fill="#A86832"/>
<path transform="translate(1095,353)" d="m0 0 7 1 2 2-4 5-2 4v6l4-1 11-7 5-1 5 3 4 6v3l-9 3-5 4-2 8 12-3 9-1 1 1v10l-4 11-8 10-8 7-8 4-10 14-9 12-9 11-12-2-8-4-9-8-6-12-1-5-1-15-4 2 5-6h2l2-4 8-8 9-11 7-8h2l2-13 5-8 8-7z" fill="#955726"/>
<path transform="translate(649,421)" d="m0 0 4 4 9 14 11 13 14 14 16 12 11 7 21 11 8 3-2 9v12l-4-2-5 1-3 3-6 12-5 16-2 1-17-10-15-10-14-10-14-11-13-10-8-7v-3l11-6 6-8 3-8v-9l-3-9-1-2v-14l-3-7-2-4z" fill="#F49136"/>
<path transform="translate(164,375)" d="m0 0 7 2 7 7 4 11 2 6 7 10 6 7 8 7 8 9v9l-4 9-7 9-8 6-7 3-6 1-8-10-13-18-6-9-13-6-5-5-4-7v-14l4-6 7 1 4 3 6 1-3-9-4-5-7-4 3-5 5-1 6 4 7 9h5l1-2v-8z" fill="#A46530"/>
<path transform="translate(197,215)" d="m0 0 5 2 13 11 8 7 16 16 8 11 12 16 1 4-5-1-15-6h-8l-2 2 1 6 5 2 14 7 6 2-1 4-3 3-6-1-1-1h-8l-2 3 1 5 4 3-1 5-5 9-2 11-5-1-5-8-8-16-7-19-8-22-4-23v-21z" fill="#FDE5B8"/>
<path transform="translate(599,423)" d="m0 0 2 3v3l8-2 7-4h9l3 2-4 9-1 8 8-3 5-4h2v11l-3 11 2 4h5l-1 7-8 9-16 8-4 5-9 12-7 6-2-6-4-2-6-9-5-5-4-5-4-10-1-8 8-9 11-16z" fill="#965826"/>
<path transform="translate(505,600)" d="m0 0 2 2 6 20 6 29 6 38 3 25 2 29 2 10-13 4-19 4h-6l3-7 5-22 2-17v-18l-1-26-2-24-3-21-3-8 6-9z" fill="#F49236"/>
<path transform="translate(709,134)" d="m0 0h3l7 14 10 19 9 17 7 17-1 5-4-1-10-8-7-1-1 5 9 10 3 4-13 11-13 13-7 8h-3l-2-5-1-21 1-6 3-38 6-32z" fill="#F49136"/>
<path transform="translate(1045,178)" d="m0 0h5l2 2v6l-17 12-11 9-10 10-7 6-18 18-5 7v3l8-1 9-3 7 1 2 2v6l-14 7 1 6 8 11 5 9 2 7-1 5-5-1-11-12-10-13-8-15-9-6v-6l9-12 9-10 7-8 20-20 17-12 12-7z" fill="#24130A"/>
<path transform="translate(416,436)" d="m0 0h17l14 3 12 6 8 7 4 8v9l-6 10-7 6-3 1h-10l-8-4-8-7-7-10-6-12-4-11 1-5z" fill="#EF844C"/>
<path transform="translate(818,424)" d="m0 0h10l11 3 2 2-1 8-5 12-9 14-8 8-10 4-8-1-8-6-5-7-2-5v-11l4-8 4-5 8-4z" fill="#EF844C"/>
<path transform="translate(490,148)" d="m0 0 4 4 8 17 6 15 5 19 3 16v16l-4-2-13-8-8-5 1-6 2-4v-7l-2-2-5 1-4 6-3 2-9-2 1-10 6-23 4-14z" fill="#FDE5B8"/>
<path transform="translate(164,375)" d="m0 0 7 2 7 7 4 11 2 8-2 3 2 3 4 1-1 2h-4l1 4 4 2-3 3-1-2-7 3-2 1-1-8h-5v5l-2-1 1-6h-2l-1 8-3 4 3 3-10 1v2l-5 1-9-4-5-5-4-7v-14l4-6 7 1 4 3 6 1-3-9-4-5-7-4 3-5 5-1 6 4 7 9h5l1-2v-8z" fill="#965826"/>
<path transform="translate(196,204)" d="m0 0 7 1 15 10 10 8 12 11 8 8 7 8 10 13 6 10 2 9-2 4-6 2-4 6h-7l-11-4-12-7-2-3 1-4 2-2h8l17 7h2l-4-7-10-13-7-10-2-4-4-2-15-15-11-9-7-5v-2l-4-2-2-2 1-5z" fill="#2A160B"/>
<path transform="translate(440,156)" d="m0 0 4 1v2h8l4 4 5 2 3 5v3h2l-1 8-4 18-1 8-1 1h-7l-14-3-20-3 1-7 8-17z" fill="#F39137"/>
<path transform="translate(470,343)" d="m0 0 11 1 10 5 3 4v9l-5 8-8 8-8 4h-12l-8-4-10-9-3-5 1-9 11-7 10-4z" fill="#28150B"/>
<path transform="translate(348,337)" d="m0 0h14l11 3 10 6 7 7 4 8v6l-2 2h-7l-5-4-4-5-8-5-9-3h-7l-4 3h-2l-2 4-7 7-2 3h-2l-2 4-3 3h-7l-2-6 4-11 7-9 8-8z" fill="#24130A"/>
<path transform="translate(891,318)" d="m0 0h10l10 4 9 6 6 8 3 7 1 10-2 4-5-1-4-5-7-10-6-4h-11l-12 4-10 6-3 3-4 1-4-3v-8l4-6 7-7 11-7z" fill="#24130A"/>
<path transform="translate(506,304)" d="m0 0h7l12 6 8 9 2 5-1 7-3 2-5-1-13-10h-5l-4 5-7 11-4 4h-5l-2-3v-9l3-10 6-9 8-6z" fill="#24130A"/>
<path transform="translate(735,299)" d="m0 0 10 1 11 7 6 9 2 6v9l-2 1-6-3-13-13-4-2h-8l-8 6-7 8-5-1v-6l4-8 8-9 7-4z" fill="#24130A"/>
<path transform="translate(528,207)" d="m0 0 3 2 2 11 2 24v10l-4-2-7-8-10-8 2-1-1-21 2-6 6 1v3l3-1 1-1z" fill="#EF8E36"/>
<path transform="translate(896,103)" d="m0 0h6l3 5-3 16-8 24-4 4-5-1-2-3 2-17 8-24z" fill="#2B170C"/>
<path transform="translate(1136,250)" d="m0 0h5l4 5-1 6-10 19-9 13-5 1-5-5 3-9 11-20 6-9z" fill="#2C180C"/>
<path transform="translate(327,117)" d="m0 0 6 1 3 7 5 15 2 12v11l-1 2-5 1-3-2-10-32-1-4v-7z" fill="#2C180C"/>
<path transform="translate(100,263)" d="m0 0 6 1 11 11 10 15 2 7-1 5-6 1-10-11-11-14-4-10z" fill="#2C180C"/>
<path transform="translate(836,100)" d="m0 0 5 2 4 9 3 13 2 11v9l-4 3-5-1-3-6-7-31 1-6z" fill="#2C180C"/>
<path transform="translate(237,298)" d="m0 0h8l3 2v2h3l1 2v7l-5 13-6 15-1 1h-5l-2-2-1-10 3-7 4-7v-4l-5-4 1-6z" fill="#2A160B"/>
<path transform="translate(282,144)" d="m0 0 5 1 5 4 9 11 8 10 2 5-1 5-4 1-6-3-12-13-7-8-3-6 2-6z" fill="#2E190D"/>
<path transform="translate(939,133)" d="m0 0h7l2 2v8l-10 14-9 10-6 1-4-3 1-6 7-11z" fill="#2D190C"/>
<path transform="translate(383,124)" d="m0 0h6l2 3v7l-5 23-4 5-6-1-2-2-1-6 3-17 4-10z" fill="#2D180C"/>
<path transform="translate(1174,282)" d="m0 0h7l3 4-1 6-11 8-15 9h-6l-3-3 1-5 11-9 11-8z" fill="#2E190D"/>
<path transform="translate(70,301)" d="m0 0h6l20 11 8 6 2 2-1 5-1 1-9-1-16-8-11-6-1-1 1-7z" fill="#2B170C"/>
<path transform="translate(87,352)" d="m0 0h7l4 4-1 6-6 3-11 2h-14l-4-3v-5l5-4z" fill="#2D190C"/>
<path transform="translate(1165,333)" d="m0 0h23l7 3 1 1v5l-3 3-3 1-26-1-4-4 1-6z" fill="#2D180C"/>
<path transform="translate(167,396)" d="m0 0h8l2 2-1 5-6 5-4 8-3 5-5-2-2-4v-7l4-7z" fill="#24130A"/>
<path transform="translate(478,609)" d="m0 0 4 1 1 1-1 10-5 10-5 6-4 3h-8l1-5 8-9 8-14z" fill="#3A200F"/>
<path transform="translate(604,436)" d="m0 0h7l6 4 4 8v10l-2 3h-5l-3-6-2-7-7-8z" fill="#24130A"/>
<path transform="translate(1090,380)" d="m0 0 6 2 4 5 1 5-3 9-6 3-4-2 1-7 1-6-1-8z" fill="#24130A"/>
<path transform="translate(175,166)" d="m0 0h8l14 4-3 2-4 1h-2l-7 1-2-1v5l-5-2v2h-2l2-11z" fill="#955726"/>
<path transform="translate(170,435)" d="m0 0 7 1v2l3 1-4 1-5-2-1 4h2v5l2-1-1 3-6 1v-3l-5-1-3-6 5-2h3v-2z" fill="#965827"/>
<path transform="translate(601,490)" d="m0 0 2 2 2 3 1-2h3l-1 4-9 10-2 1-2-6-4-2-5-7 1-2 4 4 1 2 5 1v-2h2l2 2z" fill="#AB6933"/>
<path transform="translate(201,275)" d="m0 0 2 2 1 7v4l-4-1-1-1-1 2-5-1-5 4-2-2v-4h-2l2-4h2l2 3 2-2v3l2-1 1-2 1 1 2-3h3z" fill="#F0854B"/>
<path transform="translate(1024,320)" d="m0 0 2 2-1 7 1 3 4-1 1-2 2 4-1 5-3 3-6-8-6-1 3-1 1-5h2z" fill="#A2632F"/>
<path transform="translate(1052,404)" d="m0 0 2 1-3 5-3 2v6h-4v2l3-1-1 3-4-1v13h-1l-1-15-4 2 5-6h2l2-4z" fill="#A96933"/>
<path transform="translate(182,403)" d="m0 0 4 1 6 8v6l2 1v1h-5l-5-4-2-5h5l1-1-5-1v-2l-2-1z" fill="#A66732"/>
<path transform="translate(392,591)" d="m0 0 4 4 10 15 3 3-1 2-9-8-7-13z" fill="#F89437"/>
<path transform="translate(528,207)" d="m0 0 3 2v5l-5 1h-4l-1 2-5-3 1-6 6 1v3l3-1 1-1z" fill="#F4864E"/>
<path transform="translate(1078,448)" d="m0 0 1 2 7-2 1 5-5 4h-2v-4l-4-2z" fill="#A56631"/>
<path transform="translate(440,156)" d="m0 0 4 1v2h8l3 4h-10l-3-1-2-2-2 1z" fill="#EB824B"/>
<path transform="translate(192,413)" d="m0 0 5 5-2 1v2h-2l-1 3h-6v-2h2l1-3v-2l2-1z" fill="#955726"/>
<path transform="translate(1036,286)" d="m0 0 1 3 3 1v2h-3l2 4-3 1-1 4-3 1 1-7z" fill="#A76832"/>
<path transform="translate(174,247)" d="m0 0 5 1v2l-4-1v2l5 1 1 4-2 4-1-3-3 1z" fill="#955726"/>
<path transform="translate(185,281)" d="m0 0h3l2 3 2-2 1 5-5 4-2-2v-4h-2z" fill="#F4864F"/>
<path transform="translate(470,204)" d="m0 0 1 4 9 1 1 2-3 2-6-1-3-2z" fill="#A15F2A"/>
<path transform="translate(1052,404)" d="m0 0 2 1-3 5-8 5 2-4zm-11 11 2 1-5 5-2-1z" fill="#A6632F"/>
<path transform="translate(1024,320)" d="m0 0 2 2-1 7v5l-8-2 3-1 1-5h2z" fill="#A56631"/>
<path transform="translate(996,171)" d="m0 0h3l-1 6-2-1-1-1-4 2v2h-6l4-4z" fill="#A2632F"/>
<path transform="translate(486,95)" d="m0 0h3l-1 3-4 2-11 11v-3z" fill="#9D5E2B"/>
<path transform="translate(1074,459)" d="m0 0 2 3v3l-11-2-1-3 5 1v2h2v-2h3z" fill="#A66732"/>
<path transform="translate(182,403)" d="m0 0 4 1 3 6h-5l-1-3-2-1z" fill="#A2632F"/>
<path transform="translate(576,458)" d="m0 0 3 1-4 5-2 1 1 3-2 3-1-8z" fill="#A46530"/>
<path transform="translate(593,442)" d="m0 0 3 1v2l3 2-6 1-3-3v-2z" fill="#A46530"/>
<path transform="translate(593,433)" d="m0 0 2 1v2h-2v3l2 1-5 1-2 4 1-5z" fill="#A2632F"/>
<path transform="translate(1039,275)" d="m0 0 2 1-1 12h-2l-1-6z" fill="#A76832"/>
<path transform="translate(528,207)" d="m0 0 3 2v5l-5 1-2-3 4-1-1-2z" fill="#E78048"/>
<path transform="translate(696,202)" d="m0 0h1v13l-4-1 2-4-1-3z" fill="#A86933"/>
</svg>
