<svg id="e1m6fFAuxBZ1" xmlns="http://www.w3.org/2000/svg" xmlns:xlink="http://www.w3.org/1999/xlink" viewBox="0 0 300 300" shape-rendering="geometricPrecision" text-rendering="geometricPrecision" project-id="b3d4ddb68945448b871284e84d61473d" export-id="2f2de8fe1c414fffaacbcbae0f8fe85c" cached="false"><g><line x1="0" y1="-84.938704" x2="0" y2="84.938704" transform="translate(150 95.212943)" fill="none" stroke="#007571" stroke-width="20"/><line x1="-20.869819" y1="-21.599533" x2="20.869819" y2="21.599533" transform="translate(135.130181 165.207239)" fill="none" stroke="#007571" stroke-width="20"/><line x1="-20.869819" y1="-21.599533" x2="20.869819" y2="21.599533" transform="matrix(-1 0 0 1 163.869819 165.207239)" fill="none" stroke="#007571" stroke-width="20"/></g><g transform="matrix(.012771-.999918 1.082433 0.013825-14.778236 300.814093)"><line x1="-20.869819" y1="-21.599533" x2="20.869819" y2="21.599533" transform="matrix(-1 0 0 1 78.259807 228.6054)" fill="none" stroke="#007571" stroke-width="20"/><line x1="-20.869819" y1="-21.599533" x2="20.869819" y2="21.599533" transform="matrix(-1 0 0 1 49.052546 79.199138)" fill="none" stroke="#007571" stroke-width="20"/><line x1="-20.869819" y1="-21.599533" x2="20.869819" y2="21.599533" transform="translate(49.519431 228.499218)" fill="none" stroke="#007571" stroke-width="20"/><line x1="0" y1="-84.938704" x2="0" y2="84.938704" transform="matrix(-1 0 0 1.048692 64.249097 155.046605)" fill="none" stroke="#007571" stroke-width="20"/></g><line x1="-20.869819" y1="-21.599533" x2="20.869819" y2="21.599533" transform="matrix(-1 0 0 1 72.062536 222.11423)" fill="none" stroke="#007571" stroke-width="20"/></svg>
