<svg id="eK2QYAlWzvy1" xmlns="http://www.w3.org/2000/svg" xmlns:xlink="http://www.w3.org/1999/xlink" viewBox="0 0 300 300" shape-rendering="geometricPrecision" text-rendering="geometricPrecision" project-id="2d2752d4fc4a48d680a3d135b481ef16" export-id="836fea00bb7f4671b51678878dcc883d" cached="false"><g transform="matrix(1.202673 0 0 1.212095-24.402261-25.232827)"><g transform="translate(5 24)"><rect width="69.468768" height="234.092236" rx="0" ry="0" transform="matrix(.852624 0 0 0.766405 42.871162 33.865496)" fill="#bbf591" stroke-width="0"/><rect width="15" height="15" rx="0" ry="0" transform="translate(42.294222 33.274956)" fill="#bbf591" stroke="#000"/><rect width="15" height="15" rx="0" ry="0" transform="translate(42.294222 33.274956)" fill="#bbf591" stroke="#000"/><rect width="15" height="15" rx="0" ry="0" transform="translate(42.294222 33.274956)" fill="#bbf591" stroke="#000"/><rect width="15" height="15" rx="0" ry="0" transform="translate(57.294222 33.274956)" fill="#bbf591" stroke="#000"/><rect width="15" height="15" rx="0" ry="0" transform="translate(72.294222 33.274956)" fill="#bbf591" stroke="#000"/><rect width="15" height="15" rx="0" ry="0" transform="translate(87.294222 33.274956)" fill="#bbf591" stroke="#000"/><rect width="15" height="15" rx="0" ry="0" transform="translate(87.294222 33.274956)" fill="#bbf591" stroke="#000"/><rect width="15" height="15" rx="0" ry="0" transform="translate(72.294222 33.274956)" fill="#bbf591" stroke="#000"/><rect width="15" height="15" rx="0" ry="0" transform="translate(57.294222 33.274956)" fill="#bbf591" stroke="#000"/><rect width="15" height="15" rx="0" ry="0" transform="translate(42.294222 33.274956)" fill="#bbf591" stroke="#000"/><rect width="15" height="15" rx="0" ry="0" transform="translate(87.294222 48.274956)" fill="#bbf591" stroke="#000"/><rect width="15" height="15" rx="0" ry="0" transform="translate(72.294222 48.274956)" fill="#bbf591" stroke="#000"/><rect width="15" height="15" rx="0" ry="0" transform="translate(57.294222 48.274956)" fill="#bbf591" stroke="#000"/><rect width="15" height="15" rx="0" ry="0" transform="translate(42.294222 48.274956)" fill="#bbf591" stroke="#000"/><rect width="15" height="15" rx="0" ry="0" transform="translate(87.358325 63.274956)" fill="#bbf591" stroke="#000"/><rect width="15" height="15" rx="0" ry="0" transform="translate(72.358325 63.274956)" fill="#bbf591" stroke="#000"/><rect width="15" height="15" rx="0" ry="0" transform="translate(57.358325 63.274956)" fill="#bbf591" stroke="#000"/><rect width="15" height="15" rx="0" ry="0" transform="translate(42.358325 63.274956)" fill="#bbf591" stroke="#000"/><rect width="15" height="15" rx="0" ry="0" transform="translate(42.294222 33.274956)" fill="#bbf591" stroke="#000"/><rect width="15" height="15" rx="0" ry="0" transform="translate(57.294222 33.274956)" fill="#bbf591" stroke="#000"/><rect width="15" height="15" rx="0" ry="0" transform="translate(72.294222 33.274956)" fill="#bbf591" stroke="#000"/><rect width="15" height="15" rx="0" ry="0" transform="translate(87.294222 33.274956)" fill="#bbf591" stroke="#000"/><rect width="15" height="15" rx="0" ry="0" transform="translate(87.294222 33.274956)" fill="#bbf591" stroke="#000"/><rect width="15" height="15" rx="0" ry="0" transform="translate(72.294222 33.274956)" fill="#bbf591" stroke="#000"/><rect width="15" height="15" rx="0" ry="0" transform="translate(57.294222 33.274956)" fill="#bbf591" stroke="#000"/><rect width="15" height="15" rx="0" ry="0" transform="translate(42.294222 33.274956)" fill="#bbf591" stroke="#000"/><rect width="15" height="15" rx="0" ry="0" transform="translate(87.294222 48.274956)" fill="#bbf591" stroke="#000"/><rect width="15" height="15" rx="0" ry="0" transform="translate(72.294222 48.274956)" fill="#bbf591" stroke="#000"/><rect width="15" height="15" rx="0" ry="0" transform="translate(57.294222 48.274956)" fill="#bbf591" stroke="#000"/><rect width="15" height="15" rx="0" ry="0" transform="translate(42.294222 48.274956)" fill="#bbf591" stroke="#000"/><rect width="15" height="15" rx="0" ry="0" transform="translate(87.358325 63.274956)" fill="#bbf591" stroke="#000"/><rect width="15" height="15" rx="0" ry="0" transform="translate(72.358325 63.274956)" fill="#bbf591" stroke="#000"/><rect width="15" height="15" rx="0" ry="0" transform="translate(57.358325 63.274956)" fill="#bbf591" stroke="#000"/><rect width="15" height="15" rx="0" ry="0" transform="translate(42.358325 63.274956)" fill="#bbf591" stroke="#000"/><rect width="15" height="15" rx="0" ry="0" transform="translate(42.358325 78.274956)" fill="#bbf591" stroke="#000"/><rect width="15" height="15" rx="0" ry="0" transform="translate(42.358325 78.274956)" fill="#bbf591" stroke="#000"/><rect width="15" height="15" rx="0" ry="0" transform="translate(57.358325 78.274956)" fill="#bbf591" stroke="#000"/><rect width="15" height="15" rx="0" ry="0" transform="translate(72.358325 78.274956)" fill="#bbf591" stroke="#000"/><rect width="15" height="15" rx="0" ry="0" transform="translate(87.358325 78.274956)" fill="#bbf591" stroke="#000"/><rect width="15" height="15" rx="0" ry="0" transform="translate(87.358325 78.274956)" fill="#bbf591" stroke="#000"/><rect width="15" height="15" rx="0" ry="0" transform="translate(72.358325 78.274956)" fill="#bbf591" stroke="#000"/><rect width="15" height="15" rx="0" ry="0" transform="translate(57.358325 78.274956)" fill="#bbf591" stroke="#000"/><rect width="15" height="15" rx="0" ry="0" transform="translate(42.358325 78.274956)" fill="#bbf591" stroke="#000"/><rect width="15" height="15" rx="0" ry="0" transform="translate(87.358325 93.274956)" fill="#bbf591" stroke="#000"/><rect width="15" height="15" rx="0" ry="0" transform="translate(72.358325 93.274956)" fill="#bbf591" stroke="#000"/><rect width="15" height="15" rx="0" ry="0" transform="translate(57.358325 93.274956)" fill="#bbf591" stroke="#000"/><rect width="15" height="15" rx="0" ry="0" transform="translate(42.358325 93.274956)" fill="#bbf591" stroke="#000"/><rect width="15" height="15" rx="0" ry="0" transform="translate(87.422428 108.274956)" fill="#bbf591" stroke="#000"/><rect width="15" height="15" rx="0" ry="0" transform="translate(72.422428 108.274956)" fill="#bbf591" stroke="#000"/><rect width="15" height="15" rx="0" ry="0" transform="translate(57.422428 108.274956)" fill="#bbf591" stroke="#000"/><rect width="15" height="15" rx="0" ry="0" transform="translate(42.422428 108.274956)" fill="#bbf591" stroke="#000"/><rect width="15" height="15" rx="0" ry="0" transform="translate(42.230119 123.274956)" fill="#bbf591" stroke="#000"/><rect width="15" height="15" rx="0" ry="0" transform="translate(42.230119 123.274956)" fill="#bbf591" stroke="#000"/><rect width="15" height="15" rx="0" ry="0" transform="translate(57.230119 123.274956)" fill="#bbf591" stroke="#000"/><rect width="15" height="15" rx="0" ry="0" transform="translate(72.230119 123.274956)" fill="#bbf591" stroke="#000"/><rect width="15" height="15" rx="0" ry="0" transform="translate(87.230119 123.274956)" fill="#bbf591" stroke="#000"/><rect width="15" height="15" rx="0" ry="0" transform="translate(87.230119 123.274956)" fill="#bbf591" stroke="#000"/><rect width="15" height="15" rx="0" ry="0" transform="translate(72.230119 123.274956)" fill="#bbf591" stroke="#000"/><rect width="15" height="15" rx="0" ry="0" transform="translate(57.230119 123.274956)" fill="#bbf591" stroke="#000"/><rect width="15" height="15" rx="0" ry="0" transform="translate(42.230119 123.274956)" fill="#bbf591" stroke="#000"/><rect width="15" height="15" rx="0" ry="0" transform="translate(87.230119 138.274956)" fill="#bbf591" stroke="#000"/><rect width="15" height="15" rx="0" ry="0" transform="translate(72.230119 138.274956)" fill="#bbf591" stroke="#000"/><rect width="15" height="15" rx="0" ry="0" transform="translate(57.230119 138.274956)" fill="#bbf591" stroke="#000"/><rect width="15" height="15" rx="0" ry="0" transform="translate(42.230119 138.274956)" fill="#bbf591" stroke="#000"/><rect width="15" height="15" rx="0" ry="0" transform="translate(87.294222 153.274956)" fill="#bbf591" stroke="#000"/><rect width="15" height="15" rx="0" ry="0" transform="translate(72.294222 153.274956)" fill="#bbf591" stroke="#000"/><rect width="15" height="15" rx="0" ry="0" transform="translate(57.294222 153.274956)" fill="#bbf591" stroke="#000"/><rect width="15" height="15" rx="0" ry="0" transform="translate(42.294222 153.274956)" fill="#bbf591" stroke="#000"/><rect width="15" height="15" rx="0" ry="0" transform="translate(42.422428 168.274956)" fill="#bbf591" stroke="#000"/><rect width="15" height="15" rx="0" ry="0" transform="translate(42.422428 168.274956)" fill="#bbf591" stroke="#000"/><rect width="15" height="15" rx="0" ry="0" transform="translate(57.422427 168.274956)" fill="#bbf591" stroke="#000"/><rect width="15" height="15" rx="0" ry="0" transform="translate(72.422428 168.274956)" fill="#bbf591" stroke="#000"/><rect width="15" height="15" rx="0" ry="0" transform="translate(87.422427 168.274956)" fill="#bbf591" stroke="#000"/><rect width="15" height="15" rx="0" ry="0" transform="translate(87.422427 168.274956)" fill="#bbf591" stroke="#000"/><rect width="15" height="15" rx="0" ry="0" transform="translate(72.422428 168.274956)" fill="#bbf591" stroke="#000"/><rect width="15" height="15" rx="0" ry="0" transform="translate(57.422427 168.274956)" fill="#bbf591" stroke="#000"/><rect width="15" height="15" rx="0" ry="0" transform="translate(42.422428 168.274956)" fill="#bbf591" stroke="#000"/><rect width="15" height="15" rx="0" ry="0" transform="translate(87.422427 183.274956)" fill="#bbf591" stroke="#000"/><rect width="15" height="15" rx="0" ry="0" transform="translate(72.422428 183.274956)" fill="#bbf591" stroke="#000"/><rect width="15" height="15" rx="0" ry="0" transform="translate(57.422427 183.274956)" fill="#bbf591" stroke="#000"/><rect width="15" height="15" rx="0" ry="0" transform="translate(42.422428 183.274956)" fill="#bbf591" stroke="#000"/><rect width="15" height="15" rx="0" ry="0" transform="translate(87.48653 198.274956)" fill="#bbf591" stroke="#000"/><rect width="15" height="15" rx="0" ry="0" transform="translate(72.486531 198.274956)" fill="#bbf591" stroke="#000"/><rect width="15" height="15" rx="0" ry="0" transform="translate(57.486531 198.274956)" fill="#bbf591" stroke="#000"/><rect width="15" height="15" rx="0" ry="0" transform="translate(42.486531 198.274956)" fill="#bbf591" stroke="#000"/></g><g transform="matrix(-.000849-1 1-.000849 25.042184 139.73791)"><rect width="69.468768" height="234.092236" rx="0" ry="0" transform="matrix(.852624 0 0 0.766405 42.871162 33.865496)" fill="#bbf591" stroke-width="0"/><rect width="15" height="15" rx="0" ry="0" transform="translate(42.294222 33.274956)" fill="#bbf591" stroke="#000"/><rect width="15" height="15" rx="0" ry="0" transform="translate(42.294222 33.274956)" fill="#bbf591" stroke="#000"/><rect width="15" height="15" rx="0" ry="0" transform="translate(42.294222 33.274956)" fill="#bbf591" stroke="#000"/><rect width="15" height="15" rx="0" ry="0" transform="translate(57.294222 33.274956)" fill="#bbf591" stroke="#000"/><rect width="15" height="15" rx="0" ry="0" transform="translate(72.294222 33.274956)" fill="#bbf591" stroke="#000"/><rect width="15" height="15" rx="0" ry="0" transform="translate(87.294222 33.274956)" fill="#bbf591" stroke="#000"/><rect width="15" height="15" rx="0" ry="0" transform="translate(87.294222 33.274956)" fill="#bbf591" stroke="#000"/><rect width="15" height="15" rx="0" ry="0" transform="translate(72.294222 33.274956)" fill="#bbf591" stroke="#000"/><rect width="15" height="15" rx="0" ry="0" transform="translate(57.294222 33.274956)" fill="#bbf591" stroke="#000"/><rect width="15" height="15" rx="0" ry="0" transform="translate(42.294222 33.274956)" fill="#bbf591" stroke="#000"/><rect width="15" height="15" rx="0" ry="0" transform="translate(87.294222 48.274956)" fill="#bbf591" stroke="#000"/><rect width="15" height="15" rx="0" ry="0" transform="translate(72.294222 48.274956)" fill="#bbf591" stroke="#000"/><rect width="15" height="15" rx="0" ry="0" transform="translate(57.294222 48.274956)" fill="#bbf591" stroke="#000"/><rect width="15" height="15" rx="0" ry="0" transform="translate(42.294222 48.274956)" fill="#bbf591" stroke="#000"/><rect width="15" height="15" rx="0" ry="0" transform="translate(87.358325 63.274956)" fill="#bbf591" stroke="#000"/><rect width="15" height="15" rx="0" ry="0" transform="translate(72.358325 63.274956)" fill="#bbf591" stroke="#000"/><rect width="15" height="15" rx="0" ry="0" transform="translate(57.358325 63.274956)" fill="#bbf591" stroke="#000"/><rect width="15" height="15" rx="0" ry="0" transform="translate(42.358325 63.274956)" fill="#bbf591" stroke="#000"/><rect width="15" height="15" rx="0" ry="0" transform="translate(42.294222 33.274956)" fill="#bbf591" stroke="#000"/><rect width="15" height="15" rx="0" ry="0" transform="translate(57.294222 33.274956)" fill="#bbf591" stroke="#000"/><rect width="15" height="15" rx="0" ry="0" transform="translate(72.294222 33.274956)" fill="#bbf591" stroke="#000"/><rect width="15" height="15" rx="0" ry="0" transform="translate(87.294222 33.274956)" fill="#bbf591" stroke="#000"/><rect width="15" height="15" rx="0" ry="0" transform="translate(87.294222 33.274956)" fill="#bbf591" stroke="#000"/><rect width="15" height="15" rx="0" ry="0" transform="translate(72.294222 33.274956)" fill="#bbf591" stroke="#000"/><rect width="15" height="15" rx="0" ry="0" transform="translate(57.294222 33.274956)" fill="#bbf591" stroke="#000"/><rect width="15" height="15" rx="0" ry="0" transform="translate(42.294222 33.274956)" fill="#bbf591" stroke="#000"/><rect width="15" height="15" rx="0" ry="0" transform="translate(87.294222 48.274956)" fill="#bbf591" stroke="#000"/><rect width="15" height="15" rx="0" ry="0" transform="translate(72.294222 48.274956)" fill="#bbf591" stroke="#000"/><rect width="15" height="15" rx="0" ry="0" transform="translate(57.294222 48.274956)" fill="#bbf591" stroke="#000"/><rect width="15" height="15" rx="0" ry="0" transform="translate(42.294222 48.274956)" fill="#bbf591" stroke="#000"/><rect width="15" height="15" rx="0" ry="0" transform="translate(87.358325 63.274956)" fill="#bbf591" stroke="#000"/><rect width="15" height="15" rx="0" ry="0" transform="translate(72.358325 63.274956)" fill="#bbf591" stroke="#000"/><rect width="15" height="15" rx="0" ry="0" transform="translate(57.358325 63.274956)" fill="#bbf591" stroke="#000"/><rect width="15" height="15" rx="0" ry="0" transform="translate(42.358325 63.274956)" fill="#bbf591" stroke="#000"/><rect width="15" height="15" rx="0" ry="0" transform="translate(42.358325 78.274956)" fill="#bbf591" stroke="#000"/><rect width="15" height="15" rx="0" ry="0" transform="translate(42.358325 78.274956)" fill="#bbf591" stroke="#000"/><rect width="15" height="15" rx="0" ry="0" transform="translate(57.358325 78.274956)" fill="#bbf591" stroke="#000"/><rect width="15" height="15" rx="0" ry="0" transform="translate(72.358325 78.274956)" fill="#bbf591" stroke="#000"/><rect width="15" height="15" rx="0" ry="0" transform="translate(87.358325 78.274956)" fill="#bbf591" stroke="#000"/><rect width="15" height="15" rx="0" ry="0" transform="translate(87.358325 78.274956)" fill="#bbf591" stroke="#000"/><rect width="15" height="15" rx="0" ry="0" transform="translate(72.358325 78.274956)" fill="#bbf591" stroke="#000"/><rect width="15" height="15" rx="0" ry="0" transform="translate(57.358325 78.274956)" fill="#bbf591" stroke="#000"/><rect width="15" height="15" rx="0" ry="0" transform="translate(42.358325 78.274956)" fill="#bbf591" stroke="#000"/><rect width="15" height="15" rx="0" ry="0" transform="translate(87.358325 93.274956)" fill="#bbf591" stroke="#000"/><rect width="15" height="15" rx="0" ry="0" transform="translate(72.358325 93.274956)" fill="#bbf591" stroke="#000"/><rect width="15" height="15" rx="0" ry="0" transform="translate(57.358325 93.274956)" fill="#bbf591" stroke="#000"/><rect width="15" height="15" rx="0" ry="0" transform="translate(42.358325 93.274956)" fill="#bbf591" stroke="#000"/><rect width="15" height="15" rx="0" ry="0" transform="translate(87.422428 108.274956)" fill="#bbf591" stroke="#000"/><rect width="15" height="15" rx="0" ry="0" transform="translate(72.422428 108.274956)" fill="#bbf591" stroke="#000"/><rect width="15" height="15" rx="0" ry="0" transform="translate(57.422428 108.274956)" fill="#bbf591" stroke="#000"/><rect width="15" height="15" rx="0" ry="0" transform="translate(42.422428 108.274956)" fill="#bbf591" stroke="#000"/><rect width="15" height="15" rx="0" ry="0" transform="translate(42.230119 123.274956)" fill="#bbf591" stroke="#000"/><rect width="15" height="15" rx="0" ry="0" transform="translate(42.230119 123.274956)" fill="#bbf591" stroke="#000"/><rect width="15" height="15" rx="0" ry="0" transform="translate(57.230119 123.274956)" fill="#bbf591" stroke="#000"/><rect width="15" height="15" rx="0" ry="0" transform="translate(72.230119 123.274956)" fill="#bbf591" stroke="#000"/><rect width="15" height="15" rx="0" ry="0" transform="translate(87.230119 123.274956)" fill="#bbf591" stroke="#000"/><rect width="15" height="15" rx="0" ry="0" transform="translate(87.230119 123.274956)" fill="#bbf591" stroke="#000"/><rect width="15" height="15" rx="0" ry="0" transform="translate(72.230119 123.274956)" fill="#bbf591" stroke="#000"/><rect width="15" height="15" rx="0" ry="0" transform="translate(57.230119 123.274956)" fill="#bbf591" stroke="#000"/><rect width="15" height="15" rx="0" ry="0" transform="translate(42.230119 123.274956)" fill="#bbf591" stroke="#000"/><rect width="15" height="15" rx="0" ry="0" transform="translate(87.230119 138.274956)" fill="#bbf591" stroke="#000"/><rect width="15" height="15" rx="0" ry="0" transform="translate(72.230119 138.274956)" fill="#bbf591" stroke="#000"/><rect width="15" height="15" rx="0" ry="0" transform="translate(57.230119 138.274956)" fill="#bbf591" stroke="#000"/><rect width="15" height="15" rx="0" ry="0" transform="translate(42.230119 138.274956)" fill="#bbf591" stroke="#000"/><rect width="15" height="15" rx="0" ry="0" transform="translate(87.294222 153.274956)" fill="#bbf591" stroke="#000"/><rect width="15" height="15" rx="0" ry="0" transform="translate(72.294222 153.274956)" fill="#bbf591" stroke="#000"/><rect width="15" height="15" rx="0" ry="0" transform="translate(57.294222 153.274956)" fill="#bbf591" stroke="#000"/><rect width="15" height="15" rx="0" ry="0" transform="translate(42.294222 153.274956)" fill="#bbf591" stroke="#000"/><rect width="15" height="15" rx="0" ry="0" transform="translate(42.422428 168.274956)" fill="#bbf591" stroke="#000"/><rect width="15" height="15" rx="0" ry="0" transform="translate(42.422428 168.274956)" fill="#bbf591" stroke="#000"/><rect width="15" height="15" rx="0" ry="0" transform="translate(57.422427 168.274956)" fill="#bbf591" stroke="#000"/><rect width="15" height="15" rx="0" ry="0" transform="translate(72.422428 168.274956)" fill="#bbf591" stroke="#000"/><rect width="15" height="15" rx="0" ry="0" transform="translate(87.422427 168.274956)" fill="#bbf591" stroke="#000"/><rect width="15" height="15" rx="0" ry="0" transform="translate(87.422427 168.274956)" fill="#bbf591" stroke="#000"/><rect width="15" height="15" rx="0" ry="0" transform="translate(72.422428 168.274956)" fill="#bbf591" stroke="#000"/><rect width="15" height="15" rx="0" ry="0" transform="translate(57.422427 168.274956)" fill="#bbf591" stroke="#000"/><rect width="15" height="15" rx="0" ry="0" transform="translate(42.422428 168.274956)" fill="#bbf591" stroke="#000"/><rect width="15" height="15" rx="0" ry="0" transform="translate(87.422427 183.274956)" fill="#bbf591" stroke="#000"/><rect width="15" height="15" rx="0" ry="0" transform="translate(72.422428 183.274956)" fill="#bbf591" stroke="#000"/><rect width="15" height="15" rx="0" ry="0" transform="translate(57.422427 183.274956)" fill="#bbf591" stroke="#000"/><rect width="15" height="15" rx="0" ry="0" transform="translate(42.422428 183.274956)" fill="#bbf591" stroke="#000"/><rect width="15" height="15" rx="0" ry="0" transform="translate(87.48653 198.274956)" fill="#bbf591" stroke="#000"/><rect width="15" height="15" rx="0" ry="0" transform="translate(72.486531 198.274956)" fill="#bbf591" stroke="#000"/><rect width="15" height="15" rx="0" ry="0" transform="translate(57.486531 198.274956)" fill="#bbf591" stroke="#000"/><rect width="15" height="15" rx="0" ry="0" transform="translate(42.486531 198.274956)" fill="#bbf591" stroke="#000"/></g><g transform="translate(149.743528 23.59054)"><rect width="69.468768" height="234.092236" rx="0" ry="0" transform="matrix(.852624 0 0 0.766405 42.871162 33.865496)" fill="#bbf591" stroke-width="0"/><rect width="15" height="15" rx="0" ry="0" transform="translate(42.294222 33.274956)" fill="#bbf591" stroke="#000"/><rect width="15" height="15" rx="0" ry="0" transform="translate(42.294222 33.274956)" fill="#bbf591" stroke="#000"/><rect width="15" height="15" rx="0" ry="0" transform="translate(42.294222 33.274956)" fill="#bbf591" stroke="#000"/><rect width="15" height="15" rx="0" ry="0" transform="translate(57.294222 33.274956)" fill="#bbf591" stroke="#000"/><rect width="15" height="15" rx="0" ry="0" transform="translate(72.294222 33.274956)" fill="#bbf591" stroke="#000"/><rect width="15" height="15" rx="0" ry="0" transform="translate(87.294222 33.274956)" fill="#bbf591" stroke="#000"/><rect width="15" height="15" rx="0" ry="0" transform="translate(87.294222 33.274956)" fill="#bbf591" stroke="#000"/><rect width="15" height="15" rx="0" ry="0" transform="translate(72.294222 33.274956)" fill="#bbf591" stroke="#000"/><rect width="15" height="15" rx="0" ry="0" transform="translate(57.294222 33.274956)" fill="#bbf591" stroke="#000"/><rect width="15" height="15" rx="0" ry="0" transform="translate(42.294222 33.274956)" fill="#bbf591" stroke="#000"/><rect width="15" height="15" rx="0" ry="0" transform="translate(87.294222 48.274956)" fill="#bbf591" stroke="#000"/><rect width="15" height="15" rx="0" ry="0" transform="translate(72.294222 48.274956)" fill="#bbf591" stroke="#000"/><rect width="15" height="15" rx="0" ry="0" transform="translate(57.294222 48.274956)" fill="#bbf591" stroke="#000"/><rect width="15" height="15" rx="0" ry="0" transform="translate(42.294222 48.274956)" fill="#bbf591" stroke="#000"/><rect width="15" height="15" rx="0" ry="0" transform="translate(87.358325 63.274956)" fill="#bbf591" stroke="#000"/><rect width="15" height="15" rx="0" ry="0" transform="translate(72.358325 63.274956)" fill="#bbf591" stroke="#000"/><rect width="15" height="15" rx="0" ry="0" transform="translate(57.358325 63.274956)" fill="#bbf591" stroke="#000"/><rect width="15" height="15" rx="0" ry="0" transform="translate(42.358325 63.274956)" fill="#bbf591" stroke="#000"/><rect width="15" height="15" rx="0" ry="0" transform="translate(42.294222 33.274956)" fill="#bbf591" stroke="#000"/><rect width="15" height="15" rx="0" ry="0" transform="translate(57.294222 33.274956)" fill="#bbf591" stroke="#000"/><rect width="15" height="15" rx="0" ry="0" transform="translate(72.294222 33.274956)" fill="#bbf591" stroke="#000"/><rect width="15" height="15" rx="0" ry="0" transform="translate(87.294222 33.274956)" fill="#bbf591" stroke="#000"/><rect width="15" height="15" rx="0" ry="0" transform="translate(87.294222 33.274956)" fill="#bbf591" stroke="#000"/><rect width="15" height="15" rx="0" ry="0" transform="translate(72.294222 33.274956)" fill="#bbf591" stroke="#000"/><rect width="15" height="15" rx="0" ry="0" transform="translate(57.294222 33.274956)" fill="#bbf591" stroke="#000"/><rect width="15" height="15" rx="0" ry="0" transform="translate(42.294222 33.274956)" fill="#bbf591" stroke="#000"/><rect width="15" height="15" rx="0" ry="0" transform="translate(87.294222 48.274956)" fill="#bbf591" stroke="#000"/><rect width="15" height="15" rx="0" ry="0" transform="translate(72.294222 48.274956)" fill="#bbf591" stroke="#000"/><rect width="15" height="15" rx="0" ry="0" transform="translate(57.294222 48.274956)" fill="#bbf591" stroke="#000"/><rect width="15" height="15" rx="0" ry="0" transform="translate(42.294222 48.274956)" fill="#bbf591" stroke="#000"/><rect width="15" height="15" rx="0" ry="0" transform="translate(87.358325 63.274956)" fill="#bbf591" stroke="#000"/><rect width="15" height="15" rx="0" ry="0" transform="translate(72.358325 63.274956)" fill="#bbf591" stroke="#000"/><rect width="15" height="15" rx="0" ry="0" transform="translate(57.358325 63.274956)" fill="#bbf591" stroke="#000"/><rect width="15" height="15" rx="0" ry="0" transform="translate(42.358325 63.274956)" fill="#bbf591" stroke="#000"/><rect width="15" height="15" rx="0" ry="0" transform="translate(42.358325 78.274956)" fill="#bbf591" stroke="#000"/><rect width="15" height="15" rx="0" ry="0" transform="translate(42.358325 78.274956)" fill="#bbf591" stroke="#000"/><rect width="15" height="15" rx="0" ry="0" transform="translate(57.358325 78.274956)" fill="#bbf591" stroke="#000"/><rect width="15" height="15" rx="0" ry="0" transform="translate(72.358325 78.274956)" fill="#bbf591" stroke="#000"/><rect width="15" height="15" rx="0" ry="0" transform="translate(87.358325 78.274956)" fill="#bbf591" stroke="#000"/><rect width="15" height="15" rx="0" ry="0" transform="translate(87.358325 78.274956)" fill="#bbf591" stroke="#000"/><rect width="15" height="15" rx="0" ry="0" transform="translate(72.358325 78.274956)" fill="#bbf591" stroke="#000"/><rect width="15" height="15" rx="0" ry="0" transform="translate(57.358325 78.274956)" fill="#bbf591" stroke="#000"/><rect width="15" height="15" rx="0" ry="0" transform="translate(42.358325 78.274956)" fill="#bbf591" stroke="#000"/><rect width="15" height="15" rx="0" ry="0" transform="translate(87.358325 93.274956)" fill="#bbf591" stroke="#000"/><rect width="15" height="15" rx="0" ry="0" transform="translate(72.358325 93.274956)" fill="#bbf591" stroke="#000"/><rect width="15" height="15" rx="0" ry="0" transform="translate(57.358325 93.274956)" fill="#bbf591" stroke="#000"/><rect width="15" height="15" rx="0" ry="0" transform="translate(42.358325 93.274956)" fill="#bbf591" stroke="#000"/><rect width="15" height="15" rx="0" ry="0" transform="translate(87.422428 108.274956)" fill="#bbf591" stroke="#000"/><rect width="15" height="15" rx="0" ry="0" transform="translate(72.422428 108.274956)" fill="#bbf591" stroke="#000"/><rect width="15" height="15" rx="0" ry="0" transform="translate(57.422428 108.274956)" fill="#bbf591" stroke="#000"/><rect width="15" height="15" rx="0" ry="0" transform="translate(42.422428 108.274956)" fill="#bbf591" stroke="#000"/><rect width="15" height="15" rx="0" ry="0" transform="translate(42.230119 123.274956)" fill="#bbf591" stroke="#000"/><rect width="15" height="15" rx="0" ry="0" transform="translate(42.230119 123.274956)" fill="#bbf591" stroke="#000"/><rect width="15" height="15" rx="0" ry="0" transform="translate(57.230119 123.274956)" fill="#bbf591" stroke="#000"/><rect width="15" height="15" rx="0" ry="0" transform="translate(72.230119 123.274956)" fill="#bbf591" stroke="#000"/><rect width="15" height="15" rx="0" ry="0" transform="translate(87.230119 123.274956)" fill="#bbf591" stroke="#000"/><rect width="15" height="15" rx="0" ry="0" transform="translate(87.230119 123.274956)" fill="#bbf591" stroke="#000"/><rect width="15" height="15" rx="0" ry="0" transform="translate(72.230119 123.274956)" fill="#bbf591" stroke="#000"/><rect width="15" height="15" rx="0" ry="0" transform="translate(57.230119 123.274956)" fill="#bbf591" stroke="#000"/><rect width="15" height="15" rx="0" ry="0" transform="translate(42.230119 123.274956)" fill="#bbf591" stroke="#000"/><rect width="15" height="15" rx="0" ry="0" transform="translate(87.230119 138.274956)" fill="#bbf591" stroke="#000"/><rect width="15" height="15" rx="0" ry="0" transform="translate(72.230119 138.274956)" fill="#bbf591" stroke="#000"/><rect width="15" height="15" rx="0" ry="0" transform="translate(57.230119 138.274956)" fill="#bbf591" stroke="#000"/><rect width="15" height="15" rx="0" ry="0" transform="translate(42.230119 138.274956)" fill="#bbf591" stroke="#000"/><rect width="15" height="15" rx="0" ry="0" transform="translate(87.294222 153.274956)" fill="#bbf591" stroke="#000"/><rect width="15" height="15" rx="0" ry="0" transform="translate(72.294222 153.274956)" fill="#bbf591" stroke="#000"/><rect width="15" height="15" rx="0" ry="0" transform="translate(57.294222 153.274956)" fill="#bbf591" stroke="#000"/><rect width="15" height="15" rx="0" ry="0" transform="translate(42.294222 153.274956)" fill="#bbf591" stroke="#000"/><rect width="15" height="15" rx="0" ry="0" transform="translate(42.422428 168.274956)" fill="#bbf591" stroke="#000"/><rect width="15" height="15" rx="0" ry="0" transform="translate(42.422428 168.274956)" fill="#bbf591" stroke="#000"/><rect width="15" height="15" rx="0" ry="0" transform="translate(57.422427 168.274956)" fill="#bbf591" stroke="#000"/><rect width="15" height="15" rx="0" ry="0" transform="translate(72.422428 168.274956)" fill="#bbf591" stroke="#000"/><rect width="15" height="15" rx="0" ry="0" transform="translate(87.422427 168.274956)" fill="#bbf591" stroke="#000"/><rect width="15" height="15" rx="0" ry="0" transform="translate(87.422427 168.274956)" fill="#bbf591" stroke="#000"/><rect width="15" height="15" rx="0" ry="0" transform="translate(72.422428 168.274956)" fill="#bbf591" stroke="#000"/><rect width="15" height="15" rx="0" ry="0" transform="translate(57.422427 168.274956)" fill="#bbf591" stroke="#000"/><rect width="15" height="15" rx="0" ry="0" transform="translate(42.422428 168.274956)" fill="#bbf591" stroke="#000"/><rect width="15" height="15" rx="0" ry="0" transform="translate(87.422427 183.274956)" fill="#bbf591" stroke="#000"/><rect width="15" height="15" rx="0" ry="0" transform="translate(72.422428 183.274956)" fill="#bbf591" stroke="#000"/><rect width="15" height="15" rx="0" ry="0" transform="translate(57.422427 183.274956)" fill="#bbf591" stroke="#000"/><rect width="15" height="15" rx="0" ry="0" transform="translate(42.422428 183.274956)" fill="#bbf591" stroke="#000"/><rect width="15" height="15" rx="0" ry="0" transform="translate(87.48653 198.274956)" fill="#bbf591" stroke="#000"/><rect width="15" height="15" rx="0" ry="0" transform="translate(72.486531 198.274956)" fill="#bbf591" stroke="#000"/><rect width="15" height="15" rx="0" ry="0" transform="translate(57.486531 198.274956)" fill="#bbf591" stroke="#000"/><rect width="15" height="15" rx="0" ry="0" transform="translate(42.486531 198.274956)" fill="#bbf591" stroke="#000"/></g><g transform="matrix(-.000849-1 1-.000849 4.606401 294.32845)"><rect width="69.468768" height="234.092236" rx="0" ry="0" transform="matrix(.852624 0 0 0.766405 42.871162 33.865496)" fill="#bbf591" stroke-width="0"/><rect width="15" height="15" rx="0" ry="0" transform="translate(42.294222 33.274956)" fill="#bbf591" stroke="#000"/><rect width="15" height="15" rx="0" ry="0" transform="translate(42.294222 33.274956)" fill="#bbf591" stroke="#000"/><rect width="15" height="15" rx="0" ry="0" transform="translate(42.294222 33.274956)" fill="#bbf591" stroke="#000"/><rect width="15" height="15" rx="0" ry="0" transform="translate(57.294222 33.274956)" fill="#bbf591" stroke="#000"/><rect width="15" height="15" rx="0" ry="0" transform="translate(72.294222 33.274956)" fill="#bbf591" stroke="#000"/><rect width="15" height="15" rx="0" ry="0" transform="translate(87.294222 33.274956)" fill="#bbf591" stroke="#000"/><rect width="15" height="15" rx="0" ry="0" transform="translate(87.294222 33.274956)" fill="#bbf591" stroke="#000"/><rect width="15" height="15" rx="0" ry="0" transform="translate(72.294222 33.274956)" fill="#bbf591" stroke="#000"/><rect width="15" height="15" rx="0" ry="0" transform="translate(57.294222 33.274956)" fill="#bbf591" stroke="#000"/><rect width="15" height="15" rx="0" ry="0" transform="translate(42.294222 33.274956)" fill="#bbf591" stroke="#000"/><rect width="15" height="15" rx="0" ry="0" transform="translate(87.294222 48.274956)" fill="#bbf591" stroke="#000"/><rect width="15" height="15" rx="0" ry="0" transform="translate(72.294222 48.274956)" fill="#bbf591" stroke="#000"/><rect width="15" height="15" rx="0" ry="0" transform="translate(57.294222 48.274956)" fill="#bbf591" stroke="#000"/><rect width="15" height="15" rx="0" ry="0" transform="translate(42.294222 48.274956)" fill="#bbf591" stroke="#000"/><rect width="15" height="15" rx="0" ry="0" transform="translate(87.358325 63.274956)" fill="#bbf591" stroke="#000"/><rect width="15" height="15" rx="0" ry="0" transform="translate(72.358325 63.274956)" fill="#bbf591" stroke="#000"/><rect width="15" height="15" rx="0" ry="0" transform="translate(57.358325 63.274956)" fill="#bbf591" stroke="#000"/><rect width="15" height="15" rx="0" ry="0" transform="translate(42.358325 63.274956)" fill="#bbf591" stroke="#000"/><rect width="15" height="15" rx="0" ry="0" transform="translate(42.294222 33.274956)" fill="#bbf591" stroke="#000"/><rect width="15" height="15" rx="0" ry="0" transform="translate(57.294222 33.274956)" fill="#bbf591" stroke="#000"/><rect width="15" height="15" rx="0" ry="0" transform="translate(72.294222 33.274956)" fill="#bbf591" stroke="#000"/><rect width="15" height="15" rx="0" ry="0" transform="translate(87.294222 33.274956)" fill="#bbf591" stroke="#000"/><rect width="15" height="15" rx="0" ry="0" transform="translate(87.294222 33.274956)" fill="#bbf591" stroke="#000"/><rect width="15" height="15" rx="0" ry="0" transform="translate(72.294222 33.274956)" fill="#bbf591" stroke="#000"/><rect width="15" height="15" rx="0" ry="0" transform="translate(57.294222 33.274956)" fill="#bbf591" stroke="#000"/><rect width="15" height="15" rx="0" ry="0" transform="translate(42.294222 33.274956)" fill="#bbf591" stroke="#000"/><rect width="15" height="15" rx="0" ry="0" transform="translate(87.294222 48.274956)" fill="#bbf591" stroke="#000"/><rect width="15" height="15" rx="0" ry="0" transform="translate(72.294222 48.274956)" fill="#bbf591" stroke="#000"/><rect width="15" height="15" rx="0" ry="0" transform="translate(57.294222 48.274956)" fill="#bbf591" stroke="#000"/><rect width="15" height="15" rx="0" ry="0" transform="translate(42.294222 48.274956)" fill="#bbf591" stroke="#000"/><rect width="15" height="15" rx="0" ry="0" transform="translate(87.358325 63.274956)" fill="#bbf591" stroke="#000"/><rect width="15" height="15" rx="0" ry="0" transform="translate(72.358325 63.274956)" fill="#bbf591" stroke="#000"/><rect width="15" height="15" rx="0" ry="0" transform="translate(57.358325 63.274956)" fill="#bbf591" stroke="#000"/><rect width="15" height="15" rx="0" ry="0" transform="translate(42.358325 63.274956)" fill="#bbf591" stroke="#000"/><rect width="15" height="15" rx="0" ry="0" transform="translate(42.358325 78.274956)" fill="#bbf591" stroke="#000"/><rect width="15" height="15" rx="0" ry="0" transform="translate(42.358325 78.274956)" fill="#bbf591" stroke="#000"/><rect width="15" height="15" rx="0" ry="0" transform="translate(57.358325 78.274956)" fill="#bbf591" stroke="#000"/><rect width="15" height="15" rx="0" ry="0" transform="translate(72.358325 78.274956)" fill="#bbf591" stroke="#000"/><rect width="15" height="15" rx="0" ry="0" transform="translate(87.358325 78.274956)" fill="#bbf591" stroke="#000"/><rect width="15" height="15" rx="0" ry="0" transform="translate(87.358325 78.274956)" fill="#bbf591" stroke="#000"/><rect width="15" height="15" rx="0" ry="0" transform="translate(72.358325 78.274956)" fill="#bbf591" stroke="#000"/><rect width="15" height="15" rx="0" ry="0" transform="translate(57.358325 78.274956)" fill="#bbf591" stroke="#000"/><rect width="15" height="15" rx="0" ry="0" transform="translate(42.358325 78.274956)" fill="#bbf591" stroke="#000"/><rect width="15" height="15" rx="0" ry="0" transform="translate(87.358325 93.274956)" fill="#bbf591" stroke="#000"/><rect width="15" height="15" rx="0" ry="0" transform="translate(72.358325 93.274956)" fill="#bbf591" stroke="#000"/><rect width="15" height="15" rx="0" ry="0" transform="translate(57.358325 93.274956)" fill="#bbf591" stroke="#000"/><rect width="15" height="15" rx="0" ry="0" transform="translate(42.358325 93.274956)" fill="#bbf591" stroke="#000"/><rect width="15" height="15" rx="0" ry="0" transform="translate(87.422428 108.274956)" fill="#bbf591" stroke="#000"/><rect width="15" height="15" rx="0" ry="0" transform="translate(72.422428 108.274956)" fill="#bbf591" stroke="#000"/><rect width="15" height="15" rx="0" ry="0" transform="translate(57.422428 108.274956)" fill="#bbf591" stroke="#000"/><rect width="15" height="15" rx="0" ry="0" transform="translate(42.422428 108.274956)" fill="#bbf591" stroke="#000"/><rect width="15" height="15" rx="0" ry="0" transform="translate(42.230119 123.274956)" fill="#bbf591" stroke="#000"/><rect width="15" height="15" rx="0" ry="0" transform="translate(42.230119 123.274956)" fill="#bbf591" stroke="#000"/><rect width="15" height="15" rx="0" ry="0" transform="translate(57.230119 123.274956)" fill="#bbf591" stroke="#000"/><rect width="15" height="15" rx="0" ry="0" transform="translate(72.230119 123.274956)" fill="#bbf591" stroke="#000"/><rect width="15" height="15" rx="0" ry="0" transform="translate(87.230119 123.274956)" fill="#bbf591" stroke="#000"/><rect width="15" height="15" rx="0" ry="0" transform="translate(87.230119 123.274956)" fill="#bbf591" stroke="#000"/><rect width="15" height="15" rx="0" ry="0" transform="translate(72.230119 123.274956)" fill="#bbf591" stroke="#000"/><rect width="15" height="15" rx="0" ry="0" transform="translate(57.230119 123.274956)" fill="#bbf591" stroke="#000"/><rect width="15" height="15" rx="0" ry="0" transform="translate(42.230119 123.274956)" fill="#bbf591" stroke="#000"/><rect width="15" height="15" rx="0" ry="0" transform="translate(87.230119 138.274956)" fill="#bbf591" stroke="#000"/><rect width="15" height="15" rx="0" ry="0" transform="translate(72.230119 138.274956)" fill="#bbf591" stroke="#000"/><rect width="15" height="15" rx="0" ry="0" transform="translate(57.230119 138.274956)" fill="#bbf591" stroke="#000"/><rect width="15" height="15" rx="0" ry="0" transform="translate(42.230119 138.274956)" fill="#bbf591" stroke="#000"/><rect width="15" height="15" rx="0" ry="0" transform="translate(87.294222 153.274956)" fill="#bbf591" stroke="#000"/><rect width="15" height="15" rx="0" ry="0" transform="translate(72.294222 153.274956)" fill="#bbf591" stroke="#000"/><rect width="15" height="15" rx="0" ry="0" transform="translate(57.294222 153.274956)" fill="#bbf591" stroke="#000"/><rect width="15" height="15" rx="0" ry="0" transform="translate(42.294222 153.274956)" fill="#bbf591" stroke="#000"/><rect width="15" height="15" rx="0" ry="0" transform="translate(42.422428 168.274956)" fill="#bbf591" stroke="#000"/><rect width="15" height="15" rx="0" ry="0" transform="translate(42.422428 168.274956)" fill="#bbf591" stroke="#000"/><rect width="15" height="15" rx="0" ry="0" transform="translate(57.422427 168.274956)" fill="#bbf591" stroke="#000"/><rect width="15" height="15" rx="0" ry="0" transform="translate(72.422428 168.274956)" fill="#bbf591" stroke="#000"/><rect width="15" height="15" rx="0" ry="0" transform="translate(87.422427 168.274956)" fill="#bbf591" stroke="#000"/><rect width="15" height="15" rx="0" ry="0" transform="translate(87.422427 168.274956)" fill="#bbf591" stroke="#000"/><rect width="15" height="15" rx="0" ry="0" transform="translate(72.422428 168.274956)" fill="#bbf591" stroke="#000"/><rect width="15" height="15" rx="0" ry="0" transform="translate(57.422427 168.274956)" fill="#bbf591" stroke="#000"/><rect width="15" height="15" rx="0" ry="0" transform="translate(42.422428 168.274956)" fill="#bbf591" stroke="#000"/><rect width="15" height="15" rx="0" ry="0" transform="translate(87.422427 183.274956)" fill="#bbf591" stroke="#000"/><rect width="15" height="15" rx="0" ry="0" transform="translate(72.422428 183.274956)" fill="#bbf591" stroke="#000"/><rect width="15" height="15" rx="0" ry="0" transform="translate(57.422427 183.274956)" fill="#bbf591" stroke="#000"/><rect width="15" height="15" rx="0" ry="0" transform="translate(42.422428 183.274956)" fill="#bbf591" stroke="#000"/><rect width="15" height="15" rx="0" ry="0" transform="translate(87.48653 198.274956)" fill="#bbf591" stroke="#000"/><rect width="15" height="15" rx="0" ry="0" transform="translate(72.486531 198.274956)" fill="#bbf591" stroke="#000"/><rect width="15" height="15" rx="0" ry="0" transform="translate(57.486531 198.274956)" fill="#bbf591" stroke="#000"/><rect width="15" height="15" rx="0" ry="0" transform="translate(42.486531 198.274956)" fill="#bbf591" stroke="#000"/></g></g></svg>
