<svg id="ezYJ7scdoNP1" xmlns="http://www.w3.org/2000/svg" xmlns:xlink="http://www.w3.org/1999/xlink" viewBox="0 0 300 300" shape-rendering="geometricPrecision" text-rendering="geometricPrecision" project-id="b4f39cab1ca84fc18f452852176e109d" export-id="e1659e106bc744e6ad850ca0202b9ba2" cached="false"><g transform="translate(0 16)"><line x1="0" y1="-84.938704" x2="0" y2="84.938704" transform="translate(150 95.212943)" fill="none" stroke="#000000" stroke-width="20"/><line x1="-20.869819" y1="-21.599533" x2="20.869819" y2="21.599533" transform="translate(135.130181 165.207239)" fill="none" stroke="#000000" stroke-width="20"/><line x1="-20.869819" y1="-21.599533" x2="20.869819" y2="21.599533" transform="matrix(-1 0 0 1 163.869819 165.207239)" fill="none" stroke="#000000" stroke-width="20"/></g><g transform="matrix(.012771-.999918 1.00112 0.012787-116.621061 300.985667)"><line x1="-20.869819" y1="-21.599533" x2="20.869819" y2="21.599533" transform="matrix(-1 0 0 1 78.259807 228.6054)" fill="none" stroke="#000000" stroke-width="20"/><line x1="-20.869819" y1="-21.599533" x2="20.869819" y2="21.599533" transform="translate(49.519431 228.499218)" fill="none" stroke="#000000" stroke-width="20"/><line x1="0" y1="-84.938704" x2="0" y2="84.938704" transform="matrix(-1 0 0 0.473299 63.127174 188.85687)" fill="none" stroke="#000000" stroke-width="20"/></g><g transform="matrix(.012771-.999918-1.00112-.012787 419.123803 307.531974)"><line x1="-20.869819" y1="-21.599533" x2="20.869819" y2="21.599533" transform="matrix(-1 0 0 1 78.259807 228.6054)" fill="none" stroke="#000000" stroke-width="20"/><line x1="-20.869819" y1="-21.599533" x2="20.869819" y2="21.599533" transform="translate(49.519431 228.499218)" fill="none" stroke="#000000" stroke-width="20"/><line x1="0" y1="-84.938704" x2="0" y2="84.938704" transform="matrix(-1 0 0 0.473299 63.127174 188.85687)" fill="none" stroke="#000000" stroke-width="20"/></g><line x1="-20.869819" y1="-21.599533" x2="20.869819" y2="21.599533" transform="matrix(-1 0 0 1 133.130181 39.117648)" fill="none" stroke="#000000" stroke-width="20"/><line x1="-20.869819" y1="-21.599533" x2="20.869819" y2="21.599533" transform="translate(162.869819 39.117648)" fill="none" stroke="#000000" stroke-width="20"/></svg>
