<svg xmlns="http://www.w3.org/2000/svg" width="24" height="24" viewBox="0 0 24 24"><defs><style>.cls-1,.cls-2,.cls-3,.cls-4,.cls-5,.cls-6{fill:none;}.cls-2,.cls-3,.cls-4,.cls-5,.cls-6{stroke:#007571;stroke-width:1.5px;}.cls-2,.cls-6{stroke-linecap:round;}.cls-2,.cls-3,.cls-4,.cls-5{stroke-miterlimit:10;}.cls-4{stroke-dasharray:2.5 2.5;}.cls-5{stroke-dasharray:2.04 2.04;}.cls-6{stroke-linejoin:round;}.cls-7{fill:#007571;}</style></defs><title>02_Double-w-and-halve-h</title><g id="Layer_2" data-name="Layer 2"><g id="Layer_2-2" data-name="Layer 2"><g id="_02_Double-w-and-halve-h" data-name="02_Double-w-and-halve-h"><rect class="cls-1" width="24" height="24"/><rect class="cls-2" x="2.5" y="13.22" width="9.5" height="8.13"/><polyline class="cls-3" points="21.5 20.35 21.5 21.35 20.5 21.35"/><line class="cls-4" x1="18" y1="21.35" x2="14.25" y2="21.35"/><polyline class="cls-3" points="13 21.35 12 21.35 12 20.35"/><line class="cls-5" x1="12" y1="18.31" x2="12" y2="15.24"/><polyline class="cls-3" points="12 14.22 12 13.22 13 13.22"/><line class="cls-4" x1="15.5" y1="13.22" x2="19.25" y2="13.22"/><polyline class="cls-3" points="20.5 13.22 21.5 13.22 21.5 14.22"/><line class="cls-5" x1="21.5" y1="16.26" x2="21.5" y2="19.33"/><rect class="cls-2" x="2.5" y="5.09" width="9.5" height="8.13"/><path class="cls-6" d="M15.58,2.86a5.76,5.76,0,0,1,4.6,5.61"/><polyline class="cls-7" points="17.53 8.32 20.48 10.66 22.82 7.71"/></g></g></g></svg>