<svg xmlns="http://www.w3.org/2000/svg" width="24" height="24" viewBox="0 0 24 24"><defs><style>.cls-1,.cls-2,.cls-3,.cls-4,.cls-5,.cls-6{fill:none;}.cls-2,.cls-3,.cls-4,.cls-5,.cls-6{stroke:#007571;stroke-width:1.5px;}.cls-2,.cls-6{stroke-linecap:round;}.cls-2,.cls-3,.cls-4,.cls-5{stroke-miterlimit:10;}.cls-4{stroke-dasharray:2.5 2.5;}.cls-5{stroke-dasharray:2.04 2.04;}.cls-6{stroke-linejoin:round;}.cls-7{fill:#007571;}</style></defs><title>03_Double-h-and-halve-w</title><g id="Layer_2" data-name="Layer 2"><g id="Layer_2-2" data-name="Layer 2"><g id="_03_Double-h-and-halve-w" data-name="03_Double-h-and-halve-w"><rect class="cls-1" width="24" height="24"/><rect class="cls-2" x="2.52" y="13.22" width="9.5" height="8.13"/><rect class="cls-2" x="12.02" y="13.22" width="9.5" height="8.13"/><polyline class="cls-3" points="12.02 12.22 12.02 13.22 11.02 13.22"/><line class="cls-4" x1="8.52" y1="13.22" x2="4.77" y2="13.22"/><polyline class="cls-3" points="3.52 13.22 2.52 13.22 2.52 12.22"/><line class="cls-5" x1="2.52" y1="10.18" x2="2.52" y2="7.12"/><polyline class="cls-3" points="2.52 6.09 2.52 5.09 3.52 5.09"/><line class="cls-4" x1="6.02" y1="5.09" x2="9.77" y2="5.09"/><polyline class="cls-3" points="11.02 5.09 12.02 5.09 12.02 6.09"/><line class="cls-5" x1="12.02" y1="8.14" x2="12.02" y2="11.2"/><path class="cls-6" d="M19.89,10.52a5.55,5.55,0,0,0-3.25-6.23"/><polyline class="cls-7" points="15.77 6.7 14.81 3.18 18.33 2.22"/></g></g></g></svg>